# xmcd
#
# Track frame offsets:
#	150
#	15750
#	31476
#	47319
#	63237
#	76713
#	92225
#	106876
#	123361
#	138890
#	155743
#	172279
#
# Disc length: 2518 seconds
#
# Revision: 0
# Processed by: cddbd v1.5.2PL0 Copyright (c) Steve Scherf et al.
# Submitted via: EasyCDDAExtractor 15.3.0.1
#
DISCID=8b09d40c
DTITLE=Anahi - Inesperado
DYEAR=2016
DGENRE=Latin
TTITLE0=Estan Ahi
TTITLE1=Juntos En La Oscuridad
TTITLE2=Temblando
TTITLE3=Siempre Tu
TTITLE4=Me Despido
TTITLE5=Arena Y Sol (Featuring Gente De Zona)
TTITLE6=Rumba (Featuring Wisin)
TTITLE7=Boom Cha (Featuring Zuzuka Poderosa)
TTITLE8=Amnesia
TTITLE9=La Puerta De Alcala (Featuring David Bustamante)
TTITLE10=Eres (Featuring Julion Alvarez)
TTITLE11=Inesperado
EXTD=
EXTT0=
EXTT1=
EXTT2=
EXTT3=
EXTT4=
EXTT5=
EXTT6=
EXTT7=
EXTT8=
EXTT9=
EXTT10=
EXTT11=
PLAYORDER=
